<?xml version="1.0" encoding="utf-8"?>
<!-- Generator: Adobe Illustrator 23.0.5, SVG Export Plug-In . SVG Version: 6.00 Build 0)  -->
<svg version="1.1" id="Слой_1" xmlns="http://www.w3.org/2000/svg" xmlns:xlink="http://www.w3.org/1999/xlink" x="0px" y="0px"
	 viewBox="0 0 250 100" style="enable-background:new 0 0 250 100;" xml:space="preserve">
<style type="text/css">
	.st0{fill:#FFFFFF;}
	.st1{display:none;fill:none;}
</style>
<g transform="matrix(0.7,0,0,0.7,150.11896067415722,405.57460728300566)">
	<g id="tight-bounds" transform="matrix(1,0,0,1,-0.06049999999996203,0.14040202247190336)">
		<g>
			<g>
				<g>
					<path d="M-214.4-436.7v-142.9h357.1v142.9H-214.4z"/>
					<path class="st0" d="M-211.1-441.6v-133.1h350.6v133.1H-211.1z"/>
					<path d="M-204.5-451.4v-113.5h337.4v113.5H-204.5z"/>
				</g>
				<g id="textblocktransform" transform="matrix(1,0,0,1,19.69974,19.69974)">
					<g>
						<g transform="matrix(1,0,0,1,0,0)">
							<path id="text-0" class="st0" d="M-188-485.8L-188-485.8c-3.3,0-6.5-0.6-9.7-1.8c-3.1-1.2-6-3.3-8.5-6.4
								c-2.5-3.1-4.5-7.4-6-12.8c-1.5-5.5-2.2-12.5-2.2-21l0,0c0-8.5,0.7-15.5,2.2-21c1.5-5.5,3.5-9.7,6-12.8
								c2.5-3.1,5.3-5.2,8.5-6.4c3.1-1.2,6.3-1.8,9.7-1.8l0,0c3.3,0,6.5,0.6,9.7,1.8c3.1,1.2,5.9,3.4,8.5,6.5
								c2.5,3.1,4.5,7.4,6,12.8c1.5,5.5,2.2,12.4,2.2,20.9l0,0c0,8.5-0.7,15.4-2.2,20.9c-1.5,5.5-3.5,9.7-6,12.8
								c-2.5,3.1-5.3,5.2-8.5,6.5C-181.5-486.4-184.7-485.8-188-485.8z M-188-505.4L-188-505.4c3.8,0,6.7-1.7,8.7-5.1
								c2-3.4,2.9-9.2,2.9-17.3l0,0c0-8.2-1-13.9-2.9-17.3c-2-3.4-4.9-5.1-8.7-5.1l0,0c-3.8,0-6.6,1.7-8.6,5.2s-2.9,9.2-2.9,17.2
								l0,0c0,8,1,13.7,2.9,17.2C-194.7-507.1-191.8-505.4-188-505.4z M-127.7-485.8L-127.7-485.8c-3.5,0-6.9-0.6-10.2-1.8
								c-3.3-1.2-6.3-3.3-9-6.4c-2.7-3.1-4.8-7.4-6.3-12.8c-1.6-5.5-2.3-12.5-2.3-21l0,0c0-7.9,0.8-14.6,2.3-20
								c1.6-5.4,3.6-9.7,6.2-12.9c2.6-3.2,5.4-5.6,8.5-7c3.1-1.4,6.2-2.1,9.3-2.1l0,0c2.6,0,5.2,0.3,7.7,0.9
								c2.5,0.6,4.3,1.3,5.5,2.1l0,0l8.6,10.5l-7,16.7l-13.3-10.2c-3.7,0-6.8,1.8-9.3,5.4c-2.5,3.6-3.8,9.1-3.8,16.6l0,0
								c0,5.3,0.6,9.6,1.9,12.9c1.3,3.3,3,5.7,5.2,7.3c2.2,1.5,4.8,2.3,7.6,2.3l0,0c3,0,5.6-0.4,7.7-1.1c2.1-0.7,4-1.6,5.6-2.7
								c1.6-1,3.1-2,4.6-3l0,0v19.4c-1.8,1.7-4.2,3.3-7.2,4.7C-118.4-486.5-122.5-485.8-127.7-485.8z M-76.2-485.8L-76.2-485.8
								c-8,0-14-2.7-18-8.2c-4-5.4-6-14.1-6-26.1l0,0v-30l0.1-11.7l-0.1-6.9H-86v46.3c0,5.4,0.7,9.8,2.2,13.1c1.5,3.4,4,5,7.7,5l0,0
								c3.7,0,6.3-1.6,7.8-4.7c1.5-3.1,2.3-7.6,2.3-13.4l0,0v-46.3h13.9v48.6c0,11.8-2,20.4-5.9,26S-68-485.8-76.2-485.8z
								 M-4.2-486.9h-37.2l-1.6-6.9l1.6-11.5v-63.3h14v47.5l-0.8,15.8h1.6l13.9-1.2l5.5-1.2l6.8,13.4L-4.2-486.9z M26.7-485.8
								L26.7-485.8c-8,0-13.9-2.7-18-8.2c-4-5.4-6-14.1-6-26.1l0,0v-30l0.1-11.7l-0.1-6.9h14.1v46.3c0,5.4,0.7,9.8,2.2,13.1
								c1.4,3.4,4,5,7.7,5l0,0c3.7,0,6.3-1.6,7.8-4.7c1.5-3.1,2.3-7.6,2.3-13.4l0,0v-46.3h13.9v48.6c0,11.8-1.9,20.4-5.8,26
								C40.9-488.5,34.9-485.8,26.7-485.8z M79.4-485.8L79.4-485.8c-2.8,0-5.5-0.4-8.1-1.2c-2.5-0.8-4.7-1.8-6.6-2.9
								c-1.9-1.2-3.2-2.2-4.1-3.2l0,0v-20.7c2.5,2.1,5.6,4,9.4,5.8c3.8,1.8,8,2.7,12.6,2.7l0,0c1.9,0,3.2-0.4,4.1-1.1
								c0.9-0.7,1.4-2,1.4-3.9l0,0c0-2-1-3.7-3.1-5c-2-1.3-5.3-3-9.7-5l0,0c-3.4-1.6-6.3-3.4-8.7-5.4c-2.4-2-4.2-4.4-5.5-7.4
								c-1.3-3-1.9-6.7-1.9-11.4l0,0c0-4.8,0.8-9.1,2.5-12.9c1.7-3.8,4.2-6.9,7.8-9.1c3.5-2.2,8-3.3,13.5-3.3l0,0
								c1.7,0,3.4,0.1,5.3,0.3c1.9,0.2,3.4,0.4,4.5,0.7l0,0l8.8,9.6l-3,14.1l-18.4-7.5c-2.1,0-3.7,0.7-4.7,2c-1,1.3-1.5,2.9-1.5,4.7
								l0,0c0,2.2,0.9,4,2.6,5.3s4.2,2.6,7.4,3.9l0,0c5.1,2.1,9,4.4,11.8,6.9c2.8,2.5,4.8,5.4,5.9,8.6c1.1,3.2,1.7,6.8,1.7,10.8l0,0
								c0,7.4-2,13.3-6,17.8C93.3-488,87.4-485.8,79.4-485.8z"/>
						</g>
					</g>
				</g>
			</g>
		</g>
		<rect x="-214.4" y="-579.5" class="st1" width="357.1" height="142.9"/>
	</g>
</g>
</svg>
