<?xml version="1.0" encoding="utf-8"?>
<!-- Generator: Adobe Illustrator 23.0.5, SVG Export Plug-In . SVG Version: 6.00 Build 0)  -->
<svg version="1.1" id="Слой_1" xmlns="http://www.w3.org/2000/svg" xmlns:xlink="http://www.w3.org/1999/xlink" x="0px" y="0px"
	 viewBox="0 0 120 35" style="enable-background:new 0 0 120 35;" xml:space="preserve">
<style type="text/css">
	.st0{fill:#FFFFFF;stroke:#000000;stroke-miterlimit:10;}
</style>
<path class="st0" d="M15.39,4.05l7.05,25.33h-7.38l-1.5-5.49H5.93l-1.61,5.49H1.44l7.5-25.33H15.39z M6.65,21.34h6.22L9.88,10.11
	L6.65,21.34z"/>
<path class="st0" d="M24.41,29.37V4.05h11.26c5.8,0,8.7,2.07,8.7,6.22c0,2.94-1.75,4.83-5.25,5.66c4.22,0.84,6.33,3.08,6.33,6.72
	c0,4.49-2.84,6.74-8.52,6.74H24.41z M31.75,15.07h2.26c2.09,0,3.14-1.55,3.14-4.64c0-2.86-1.11-4.29-3.32-4.29h-2.08V15.07z
	 M31.75,27.28h2.1c2.75,0,4.12-1.57,4.12-4.71c0-3.6-1.42-5.4-4.25-5.4h-1.97V27.28z"/>
<path class="st0" d="M58.64,3.6c7.37,0,11.06,4.37,11.06,13.1c0,8.73-3.75,13.1-11.26,13.1c-7.51,0-11.26-4.46-11.26-13.4
	C47.17,7.87,51,3.6,58.64,3.6z M58.44,5.62c-1.39,0-2.32,0.76-2.81,2.29c-0.49,1.53-0.73,4.46-0.73,8.79s0.24,7.26,0.73,8.79
	c0.49,1.53,1.43,2.29,2.81,2.29c1.38,0,2.32-0.76,2.81-2.29c0.49-1.53,0.73-4.46,0.73-8.79c0-4.32-0.24-7.24-0.73-8.78
	C60.76,6.39,59.82,5.62,58.44,5.62z"/>
<path class="st0" d="M82.85,15.7h10.43v13.67h-2.34l-0.8-1.74c-2.04,1.45-4.2,2.17-6.48,2.17c-3.75,0-6.66-1.12-8.73-3.37
	c-2.07-2.24-3.11-5.41-3.11-9.49c0-3.97,1.1-7.18,3.29-9.64c2.2-2.46,5.07-3.68,8.62-3.68c4.68,0,7.52,2.39,8.54,7.16l-3.45,1.58
	v-0.61l-0.06-1.37c-0.24-2.98-1.61-4.47-4.14-4.47c-1.86,0-3.12,0.79-3.8,2.38c-0.68,1.58-1.02,4.53-1.02,8.85
	c0,4.03,0.28,6.77,0.83,8.22c0.55,1.45,1.6,2.17,3.14,2.17c1.82,0,2.73-1.01,2.73-3.04v-6.23h-3.66V15.7z"/>
<path class="st0" d="M107.25,3.6c7.37,0,11.06,4.37,11.06,13.1c0,8.73-3.75,13.1-11.26,13.1c-7.51,0-11.26-4.46-11.26-13.4
	C95.79,7.87,99.61,3.6,107.25,3.6z M107.05,5.62c-1.39,0-2.32,0.76-2.81,2.29c-0.49,1.53-0.73,4.46-0.73,8.79s0.24,7.26,0.73,8.79
	c0.49,1.53,1.43,2.29,2.81,2.29c1.38,0,2.32-0.76,2.81-2.29c0.49-1.53,0.73-4.46,0.73-8.79c0-4.32-0.24-7.24-0.73-8.78
	C109.37,6.39,108.43,5.62,107.05,5.62z"/>
</svg>
