<svg xmlns="http://www.w3.org/2000/svg" version="1.1" xmlns:xlink="http://www.w3.org/1999/xlink" xmlns:svgjs="http://svgjs.dev/svgjs" width="1000" height="1000" viewBox="0 0 1000 1000"><rect width="1000" height="1000" fill="#ffffff"></rect><g transform="matrix(0.7,0,0,0.7,150.11896067415722,405.57460728300566)"><svg viewBox="0 0 356 96" data-background-color="#dedede" preserveAspectRatio="xMidYMid meet" height="269" width="1000" xmlns="http://www.w3.org/2000/svg" xmlns:xlink="http://www.w3.org/1999/xlink"><g id="tight-bounds" transform="matrix(1,0,0,1,-0.06049999999996203,0.14040202247190336)"><svg viewBox="0 0 356.12052 95.71919595505618" height="95.71919595505618" width="356.12052"><g><svg viewBox="0 0 356.12052 95.71919595505618" height="95.71919595505618" width="356.12052"><g><svg viewBox="0 0 356.12052 95.71919595505618" height="95.71919595505618" width="356.12052"><g><path d="M0 95.719v-95.719h356.121v95.719z" fill="#000000" stroke="transparent" stroke-width="0" rx="0%" data-fill-palette-color="tertiary"></path><path d="M3.283 92.436v-89.153h349.554v89.153z" fill="#ffffff" stroke="transparent" stroke-width="0" rx="0%" data-fill-palette-color="quaternary"></path><path d="M9.85 85.869v-76.019h336.421v76.019z" fill="#000000" stroke="transparent" stroke-width="0" data-fill-palette-color="tertiary"></path></g><g transform="matrix(1,0,0,1,19.69974,19.69974)" id="textblocktransform"><svg viewBox="0 0 316.72104 56.31971595505618" height="56.31971595505618" width="316.72104" id="textblock"><g><svg viewBox="0 0 316.72104 56.31971595505618" height="56.31971595505618" width="316.72104"><g transform="matrix(1,0,0,1,0,0)"><svg width="316.72104" viewBox="2 -35.900001525878906 204.69000244140625 36.400001525878906" height="56.31971595505618" data-palette-color="#dedede"><path d="M18.95 0.5L18.95 0.5Q15.75 0.5 12.73-0.28 9.7-1.05 7.28-3.05 4.85-5.05 3.43-8.6 2-12.15 2-17.7L2-17.7Q2-23.25 3.43-26.8 4.85-30.35 7.28-32.35 9.7-34.35 12.73-35.13 15.75-35.9 18.95-35.9L18.95-35.9Q22.15-35.9 25.18-35.1 28.2-34.3 30.63-32.3 33.05-30.3 34.48-26.75 35.9-23.2 35.9-17.7L35.9-17.7Q35.9-12.2 34.48-8.65 33.05-5.1 30.63-3.1 28.2-1.1 25.18-0.3 22.15 0.5 18.95 0.5ZM18.95-8L18.95-8Q22.65-8 24.55-10.2 26.45-12.4 26.45-17.7L26.45-17.7Q26.45-23 24.55-25.2 22.65-27.4 18.95-27.4L18.95-27.4Q15.3-27.4 13.4-25.15 11.5-22.9 11.5-17.7L11.5-17.7Q11.5-12.5 13.4-10.25 15.3-8 18.95-8ZM57.85 0.5L57.85 0.5Q54.45 0.5 51.25-0.28 48.05-1.05 45.47-3.05 42.9-5.05 41.4-8.6 39.9-12.15 39.9-17.7L39.9-17.7Q39.9-22.85 41.4-26.35 42.9-29.85 45.4-31.95 47.9-34.05 50.87-34.98 53.85-35.9 56.85-35.9L56.85-35.9Q59.4-35.9 61.82-35.5 64.25-35.1 65.35-34.6L65.35-34.6 70.9-30.05 66.4-22.8 57.85-27.2Q54.3-27.2 51.85-24.88 49.4-22.55 49.4-17.7L49.4-17.7Q49.4-14.25 50.62-12.1 51.85-9.95 54-8.95 56.15-7.95 58.9-7.95L58.9-7.95Q61.8-7.95 63.85-8.43 65.9-8.9 67.45-9.58 69-10.25 70.4-10.9L70.4-10.9 70.4-2.5Q68.65-1.4 65.75-0.45 62.85 0.5 57.85 0.5ZM91.05 0.5L91.05 0.5Q83.34 0.5 79.47-3.03 75.59-6.55 75.59-14.35L75.59-14.35 75.59-27.35 75.64-32.4 75.59-35.4 84.69-35.4 84.69-15.35Q84.69-11.85 86.09-9.68 87.5-7.5 91.05-7.5L91.05-7.5Q94.59-7.5 96.07-9.53 97.55-11.55 97.55-15.35L97.55-15.35 97.55-35.4 106.5-35.4 106.5-14.35Q106.5-6.7 102.72-3.1 98.94 0.5 91.05 0.5ZM137.44 0L113.49 0 112.49-3 113.49-8 113.49-35.4 122.49-35.4 122.49-14.85 121.99-8 122.99-8 131.94-8.5 135.49-9 139.89-3.2 137.44 0ZM157.34 0.5L157.34 0.5Q149.64 0.5 145.77-3.03 141.89-6.55 141.89-14.35L141.89-14.35 141.89-27.35 141.94-32.4 141.89-35.4 150.99-35.4 150.99-15.35Q150.99-11.85 152.39-9.68 153.79-7.5 157.34-7.5L157.34-7.5Q160.89-7.5 162.37-9.53 163.84-11.55 163.84-15.35L163.84-15.35 163.84-35.4 172.79-35.4 172.79-14.35Q172.79-6.7 169.02-3.1 165.24 0.5 157.34 0.5ZM191.29 0.5L191.29 0.5Q188.54 0.5 186.09-0.03 183.64-0.55 181.84-1.3 180.04-2.05 179.19-2.7L179.19-2.7 179.19-11.65Q181.59-10.3 185.24-9.13 188.89-7.95 193.34-7.95L193.34-7.95Q195.14-7.95 196.01-8.43 196.89-8.9 196.89-10.1L196.89-10.1Q196.89-11.4 194.91-12.28 192.94-13.15 188.69-14.45L188.69-14.45Q185.39-15.5 183.06-16.78 180.74-18.05 179.51-19.98 178.29-21.9 178.29-24.9L178.29-24.9Q178.29-28 179.89-30.5 181.49-33 184.89-34.45 188.29-35.9 193.59-35.9L193.59-35.9Q195.19-35.9 197.01-35.77 198.84-35.65 199.94-35.45L199.94-35.45 205.59-31.3 203.64-25.2 191.79-28.45Q189.74-28.45 188.76-27.6 187.79-26.75 187.79-25.55L187.79-25.55Q187.79-24.1 189.44-23.25 191.09-22.4 194.19-21.55L194.19-21.55Q199.09-20.2 201.79-18.55 204.49-16.9 205.59-14.83 206.69-12.75 206.69-10.15L206.69-10.15Q206.69-5.35 202.84-2.43 198.99 0.5 191.29 0.5Z" opacity="1" transform="matrix(1,0,0,1,0,0)" fill="#ffffff" class="wordmark-text-0" data-fill-palette-color="quaternary" id="text-0"></path></svg></g></svg></g></svg></g></svg></g><g></g></svg></g><defs></defs></svg><rect width="356.12052" height="95.71919595505618" fill="none" stroke="none" visibility="hidden"></rect></g></svg></g></svg>