<?xml version="1.0" encoding="utf-8"?>
<!-- Generator: Adobe Illustrator 23.0.5, SVG Export Plug-In . SVG Version: 6.00 Build 0)  -->
<svg version="1.1" id="textblock" xmlns:svgjs="http://svgjs.dev/svgjs"
	 xmlns="http://www.w3.org/2000/svg" xmlns:xlink="http://www.w3.org/1999/xlink" x="0px" y="0px" viewBox="0 0 1000 269"
	 style="enable-background:new 0 0 1000 269;" xml:space="preserve">
<style type="text/css">
	.st0{fill:#374151;}
	.st1{fill:#DEDEDE;}
	.st2{display:none;fill:none;}
</style>
<g transform="matrix(1,0,0,1,0.16994382022460286,-0.3934181671348256)">
	<g id="tight-bounds" transform="matrix(1,0,0,1,-0.06049999999996203,0.14040202247190336)">
		<path class="st0" d="M-25.1,284.5V-13.2h1036.9v297.6H-25.1z"/>
		<path class="st1" d="M-15.5,274.3V-2.9h1017.8v277.2H-15.5z"/>
		<path d="M3.6,253.9V17.5h979.6v236.4H3.6z"/>
		<g>
			<g transform="matrix(1,0,0,1,0,0)">
				<path id="text-0" class="st1" d="M108.6,223.2L108.6,223.2c-9.6,0-19-1.3-28-3.8c-9.1-2.5-17.3-6.9-24.6-13.3
					c-7.3-6.4-13.1-15.3-17.3-26.7c-4.3-11.4-6.4-26-6.4-43.8l0,0c0-17.8,2.1-32.4,6.4-43.8c4.3-11.4,10-20.3,17.3-26.7
					c7.3-6.4,15.5-10.9,24.6-13.4c9.1-2.5,18.4-3.7,28-3.7l0,0c9.6,0,19,1.3,28.1,3.8c9.1,2.6,17.3,7.1,24.6,13.5
					c7.3,6.4,13,15.3,17.3,26.7c4.3,11.4,6.4,25.9,6.4,43.5l0,0c0,17.6-2.1,32.2-6.4,43.5c-4.3,11.4-10.1,20.3-17.3,26.7
					c-7.3,6.4-15.5,10.9-24.6,13.5C127.6,221.9,118.3,223.2,108.6,223.2z M108.6,182.3L108.6,182.3c11.1,0,19.5-3.5,25.2-10.6
					c5.7-7.1,8.6-19.1,8.6-36.1l0,0c0-17-2.9-29-8.6-36.1c-5.7-7.1-14.1-10.6-25.2-10.6l0,0c-11,0-19.3,3.6-25,10.8
					s-8.6,19.2-8.6,35.8l0,0c0,16.7,2.9,28.6,8.6,35.8C89.4,178.7,97.7,182.3,108.6,182.3z M283.9,223.2L283.9,223.2
					c-10.2,0-20.1-1.3-29.7-3.8c-9.6-2.5-18.3-6.9-26-13.3c-7.7-6.4-13.8-15.3-18.3-26.7s-6.8-26-6.8-43.8l0,0
					c0-16.5,2.3-30.4,6.8-41.6s10.5-20.2,18-26.9c7.5-6.7,15.7-11.6,24.6-14.6c9-3,17.9-4.4,26.9-4.4l0,0c7.7,0,15.1,0.6,22.4,1.9
					c7.3,1.3,12.6,2.7,15.9,4.3l0,0l25,21.9l-20.3,34.9L283.9,90c-10.7,0-19.7,3.7-27,11.2c-7.4,7.5-11,19-11,34.5l0,0
					c0,11.1,1.8,20,5.5,26.9c3.7,6.9,8.8,11.9,15.2,15.2s13.8,4.8,22.1,4.8l0,0c8.7,0,16.1-0.8,22.3-2.3c6.2-1.5,11.6-3.4,16.2-5.5
					c4.7-2.1,9.1-4.3,13.3-6.4l0,0v40.4c-5.3,3.5-12.2,6.8-20.9,9.9C310.8,221.7,298.9,223.2,283.9,223.2z M433.5,223.2L433.5,223.2
					c-23.2,0-40.5-5.7-52.2-17c-11.7-11.3-17.5-29.4-17.5-54.5l0,0V89.2l0.2-24.3l-0.2-14.4h41V147c0,11.2,2.1,20.3,6.3,27.3
					c4.2,7,11.7,10.5,22.3,10.5l0,0c10.6,0,18.2-3.3,22.6-9.8c4.4-6.5,6.7-15.8,6.7-28l0,0V50.5h40.3v101.3c0,24.5-5.7,42.6-17,54.1
					S457.2,223.2,433.5,223.2z M642.5,220.8H534.6l-4.5-14.4l4.5-24.1V50.5h40.5v98.9l-2.3,33h4.5l40.3-2.4l16-2.4l19.8,27.9
					L642.5,220.8z M732.1,223.2L732.1,223.2c-23.1,0-40.5-5.7-52.1-17c-11.7-11.3-17.5-29.4-17.5-54.5l0,0V89.2l0.2-24.3l-0.2-14.4
					h41V147c0,11.2,2.1,20.3,6.3,27.3c4.2,7,11.6,10.5,22.3,10.5l0,0c10.7,0,18.2-3.3,22.7-9.8c4.4-6.5,6.6-15.8,6.6-28l0,0V50.5
					h40.3v101.3c0,24.5-5.7,42.6-17,54.1C773.4,217.5,755.8,223.2,732.1,223.2z M885.1,223.2L885.1,223.2c-8.3,0-16.1-0.8-23.4-2.5
					c-7.4-1.7-13.7-3.7-19.1-6.1c-5.4-2.4-9.4-4.7-11.9-6.7l0,0v-43.1c7.2,4.3,16.3,8.4,27.3,12.1c11,3.8,23.1,5.7,36.5,5.7l0,0
					c5.4,0,9.4-0.8,12-2.3c2.6-1.5,4-4.2,4-8l0,0c0-4.2-3-7.7-8.9-10.5c-5.9-2.8-15.3-6.3-28-10.4l0,0c-9.9-3.4-18.4-7.1-25.4-11.2
					c-7-4.1-12.3-9.2-16-15.4c-3.7-6.2-5.5-14-5.5-23.7l0,0c0-9.9,2.4-18.9,7.2-26.9c4.8-8,12.3-14.4,22.5-19s23.3-7,39.2-7l0,0
					c4.8,0,9.9,0.2,15.4,0.6c5.5,0.4,9.9,0.9,13.2,1.5l0,0l25.5,20l-8.8,29.3l-53.4-15.6c-6.2,0-10.7,1.4-13.7,4.1
					c-2.9,2.7-4.4,6-4.4,9.9l0,0c0,4.7,2.5,8.3,7.4,11.1c5,2.7,12.1,5.5,21.4,8.2l0,0c14.7,4.3,26.1,9.1,34.2,14.4
					c8.1,5.3,13.8,11.3,17.1,17.9c3.3,6.7,5,14.2,5,22.5l0,0c0,15.4-5.8,27.8-17.3,37.1C925.5,218.5,908.2,223.2,885.1,223.2z"/>
			</g>
		</g>
		<rect x="-25.1" y="-13.2" class="st2" width="1036.9" height="297.6"/>
	</g>
</g>
</svg>
