<?xml version="1.0" encoding="utf-8"?>
<!-- Generator: Adobe Illustrator 23.0.5, SVG Export Plug-In . SVG Version: 6.00 Build 0)  -->
<svg version="1.1" id="textblock" xmlns:svgjs="http://svgjs.dev/svgjs"
	 xmlns="http://www.w3.org/2000/svg" xmlns:xlink="http://www.w3.org/1999/xlink" x="0px" y="0px" viewBox="0 0 1000 1000"
	 style="enable-background:new 0 0 1000 1000;" xml:space="preserve">
<style type="text/css">
	.st0{fill:#FFFFFF;}
	.st1{display:none;fill:none;}
</style>
<rect class="st0" width="1000" height="1000"/>
<g transform="matrix(0.7,0,0,0.7,150.11896067415722,405.57460728300566)">
	<g id="tight-bounds" transform="matrix(1,0,0,1,-0.06049999999996203,0.14040202247190336)">
		<g>
			<g>
				<g>
					<path d="M1.1,268.5V0.3H999v268.2H1.1z"/>
					<path class="st0" d="M10.3,259.3V9.5h979.5v249.8H10.3z"/>
					<path d="M28.7,240.9v-213h942.7v213H28.7z"/>
				</g>
				<g id="textblocktransform" transform="matrix(1,0,0,1,19.69974,19.69974)">
					<g>
						<g transform="matrix(1,0,0,1,0,0)">
							<path id="text-0" class="st0" d="M110.1,193.6L110.1,193.6c-9.2,0-18.2-1.1-27-3.4c-8.8-2.2-16.6-6.2-23.6-12
								c-7-5.8-12.6-13.8-16.7-24.1c-4.1-10.3-6.2-23.4-6.2-39.5l0,0c0-16,2.1-29.2,6.2-39.5c4.1-10.3,9.7-18.3,16.7-24.1
								c7-5.8,14.9-9.8,23.6-12.1c8.7-2.2,17.7-3.3,27-3.3l0,0c9.2,0,18.3,1.2,27,3.5c8.7,2.3,16.6,6.4,23.6,12.1
								c7,5.8,12.6,13.8,16.7,24.1c4.1,10.3,6.2,23.3,6.2,39.2l0,0c0,15.9-2.1,29-6.2,39.2c-4.1,10.3-9.7,18.3-16.7,24.1
								c-7,5.8-14.9,9.8-23.6,12.1C128.4,192.4,119.4,193.6,110.1,193.6z M110.1,156.7L110.1,156.7c10.7,0,18.8-3.2,24.3-9.5
								c5.5-6.4,8.2-17.2,8.2-32.5l0,0c0-15.3-2.7-26.2-8.2-32.5c-5.5-6.4-13.6-9.5-24.3-9.5l0,0c-10.5,0-18.6,3.3-24.1,9.8
								c-5.5,6.5-8.2,17.3-8.2,32.3l0,0c0,15,2.7,25.8,8.2,32.3C91.6,153.5,99.6,156.7,110.1,156.7z M278.8,193.6L278.8,193.6
								c-9.8,0-19.4-1.1-28.6-3.4c-9.2-2.2-17.6-6.2-25.1-12c-7.4-5.8-13.3-13.8-17.6-24.1c-4.3-10.3-6.5-23.4-6.5-39.5l0,0
								c0-14.9,2.2-27.4,6.5-37.5s10.1-18.2,17.3-24.3c7.2-6.1,15.1-10.4,23.7-13.1c8.6-2.7,17.3-4,25.9-4l0,0
								c7.4,0,14.6,0.6,21.5,1.7c7,1.2,12.1,2.5,15.3,3.9l0,0l24.1,19.7l-19.5,31.4l-37.1-19.1c-10.3,0-18.9,3.4-26,10.1
								c-7.1,6.7-10.6,17.1-10.6,31.1l0,0c0,10,1.8,18.1,5.3,24.3c3.6,6.2,8.4,10.8,14.7,13.7c6.2,2.9,13.3,4.3,21.2,4.3l0,0
								c8.4,0,15.5-0.7,21.5-2.1c5.9-1.4,11.1-3,15.6-5c4.5-1.9,8.7-3.8,12.8-5.7l0,0v36.4c-5.1,3.2-11.8,6.1-20.2,8.9
								C304.6,192.2,293.2,193.6,278.8,193.6z M422.7,193.6L422.7,193.6c-22.3,0-39-5.1-50.2-15.3c-11.2-10.2-16.8-26.5-16.8-49.1
								l0,0V72.8l0.2-21.9l-0.2-13h39.5v86.9c0,10.1,2,18.3,6.1,24.6c4.1,6.3,11.2,9.5,21.5,9.5l0,0c10.2,0,17.5-2.9,21.8-8.8
								c4.3-5.8,6.4-14.2,6.4-25.2l0,0V37.9h38.8v91.3c0,22.1-5.5,38.4-16.4,48.8S445.5,193.6,422.7,193.6z M623.8,191.4H520
								l-4.3-13l4.3-21.7V37.9h39V127l-2.2,29.7h4.3l38.8-2.2l15.4-2.2l19.1,25.1L623.8,191.4z M710.1,193.6L710.1,193.6
								c-22.3,0-39-5.1-50.2-15.3c-11.2-10.2-16.8-26.5-16.8-49.1l0,0V72.8l0.2-21.9l-0.2-13h39.5v86.9c0,10.1,2,18.3,6.1,24.6
								c4,6.3,11.2,9.5,21.5,9.5l0,0c10.3,0,17.5-2.9,21.8-8.8c4.2-5.8,6.4-14.2,6.4-25.2l0,0V37.9h38.8v91.3
								c0,22.1-5.4,38.4-16.3,48.8C749.8,188.4,733,193.6,710.1,193.6z M857.3,193.6L857.3,193.6c-7.9,0-15.5-0.8-22.5-2.3
								c-7.1-1.5-13.2-3.3-18.4-5.5c-5.2-2.2-9-4.2-11.5-6.1l0,0v-38.8c6.9,3.9,15.7,7.5,26.2,10.9c10.5,3.4,22.3,5.1,35.1,5.1l0,0
								c5.2,0,9.1-0.7,11.6-2.1c2.5-1.4,3.8-3.8,3.8-7.2l0,0c0-3.8-2.9-6.9-8.6-9.5c-5.7-2.5-14.7-5.7-27-9.4l0,0
								c-9.5-3-17.7-6.4-24.4-10.1c-6.7-3.7-11.8-8.3-15.4-13.9c-3.5-5.5-5.3-12.7-5.3-21.3l0,0c0-9,2.3-17.1,6.9-24.3
								c4.6-7.2,11.9-12.9,21.7-17.1c9.8-4.2,22.4-6.3,37.7-6.3l0,0c4.6,0,9.6,0.2,14.8,0.6c5.3,0.3,9.5,0.8,12.7,1.4l0,0l24.5,18
								l-8.5,26.4l-51.4-14.1c-5.9,0-10.3,1.2-13.1,3.7c-2.8,2.5-4.2,5.4-4.2,8.9l0,0c0,4.2,2.4,7.5,7.2,10s11.6,4.9,20.6,7.4l0,0
								c14.2,3.9,25.1,8.2,32.9,13c7.8,4.8,13.3,10.1,16.5,16.1c3.2,6,4.8,12.8,4.8,20.3l0,0c0,13.9-5.6,25-16.7,33.5
								C896.3,189.3,879.6,193.6,857.3,193.6z"/>
						</g>
					</g>
				</g>
			</g>
		</g>
		<rect x="1.1" y="0.3" class="st1" width="997.9" height="268.2"/>
	</g>
</g>
</svg>
